PathFileType	4	(X/Y/Z)	c:\Git\powerlifing_model_clean\simulations\HC835B\Session1\HC835B_CUT_0005\marker_experimental.trc
DataRate	CameraRate	NumFrames	NumMarkers	Units	OrigDataRate	OrigDataStartFrame	OrigNumFrames
240.000000	240.000000	5	38	mm	240.000000	0	75
Frame#	Time	RPSI			LPSI			RASI			LASI			RTH1			RTH2			RTH3			RTH4			RSK1			RSK2			RSK3			RSK4			RCAL1			RCAL2			RCAL3			RST			RPT			RTN			RFMB			RSMB			RVMB			RFMH			RSMH			RVMH			RPM			LTH1			LTH2			LTH3			LTH4			LSK1			LSK2			LSK3			LSK4			LCAL1			LCAL2			LCAL3			LFMH			LVMH			
		X1	Y1	Z1	X2	Y2	Z2	X3	Y3	Z3	X4	Y4	Z4	X5	Y5	Z5	X6	Y6	Z6	X7	Y7	Z7	X8	Y8	Z8	X9	Y9	Z9	X10	Y10	Z10	X11	Y11	Z11	X12	Y12	Z12	X13	Y13	Z13	X14	Y14	Z14	X15	Y15	Z15	X16	Y16	Z16	X17	Y17	Z17	X18	Y18	Z18	X19	Y19	Z19	X20	Y20	Z20	X21	Y21	Z21	X22	Y22	Z22	X23	Y23	Z23	X24	Y24	Z24	X25	Y25	Z25	X26	Y26	Z26	X27	Y27	Z27	X28	Y28	Z28	X29	Y29	Z29	X30	Y30	Z30	X31	Y31	Z31	X32	Y32	Z32	X33	Y33	Z33	X34	Y34	Z34	X35	Y35	Z35	X36	Y36	Z36	X37	Y37	Z37	X38	Y38	Z38	

1	0	265.8248901367188	1057.412719726563	280.8684997558594	167.0303497314453	1033.716552734375	312.6341552734376	277.4193420410157	1025.424072265625	68.28479003906251	75.9998245239258	943.8310546875002	134.9194946289063	431.0714416503907	841.8072509765627	-27.46960067749024	403.3135375976564	862.3560180664065	-77.08042144775392	432.4187622070314	792.3033447265627	-95.75667572021486	396.541473388672	805.554626464844	-140.1991577148438	554.2283935546876	405.1615295410157	-193.5383911132813	547.7120971679689	402.3392333984376	-254.4718322753907	569.1163330078126	355.6828002929688	-221.6173400878907	550.5367431640626	348.3908081054688	-278.1072082519532	585.7771606445314	193.7829132080079	-189.0752563476563	559.6511230468751	151.3726348876953	-196.0185852050782	622.4059448242189	164.272705078125	-202.5507354736329	533.2814331054689	166.1950073242188	-261.9624328613282	634.0949707031251	183.6655578613282	-263.5764770507813	533.2178955078126	190.5555572509766	-317.6396789550782	536.8081054687501	175.6662292480469	-351.2118530273438	576.0104370117189	208.9423217773438	-365.4204406738282	643.6087036132814	162.2433166503907	-310.9149780273438	533.8820800781251	149.9848327636719	-406.0048828125001	579.4251098632814	174.9998626708985	-424.632293701172	650.7908935546876	155.2888946533203	-392.4158325195314	565.2446289062501	167.6414184570313	-482.5947875976564	160.69775390625	678.2575683593751	309.0377502441407	162.7242736816407	646.9734497070314	256.6736450195313	202.5977935791016	602.8120727539064	306.5203857421876	216.1918029785157	579.4656982421876	251.3815460205079	446.5698242187501	386.4909057617189	603.4465332031251	457.6045532226564	335.6436157226563	587.0347290039064	475.431121826172	350.4330749511719	631.2979736328126	500.4827880859376	302.6512756347657	606.3455200195314	592.1985473632814	355.4950561523438	741.0320434570314	581.8783569335939	334.1942749023438	782.9312744140627	634.8486938476564	349.3463745117188	761.4614257812501	674.0806884765626	152.3542938232422	668.5263671875001	590.0751953125001	145.797348022461	737.5162963867189	
2	0.004166666666666667	263.2367248535157	1057.8955078125	259.2044372558594	164.4554138183594	1034.991455078125	291.5846862792969	271.7947387695313	1024.934936523438	46.89783096313477	71.36734771728517	944.4951782226565	115.1777954101563	428.8825073242189	838.2733154296877	-48.25847625732423	399.7040405273439	857.019958496094	-98.07025909423831	429.919647216797	786.8382568359377	-115.0898132324219	392.8193359375001	798.0340576171877	-159.1446990966797	554.1298217773439	400.863494873047	-220.9347381591797	542.4641723632814	397.6399841308595	-281.0953369140626	566.1549072265626	351.1673889160157	-249.7387695312501	544.5008544921876	343.9417724609376	-305.1505432128907	584.2369384765626	187.9973297119141	-219.5037078857422	558.1763916015626	145.6953887939453	-226.7397918701172	620.5629272460939	159.0016784667969	-234.7087554931641	529.9443969726564	161.7714080810547	-291.5221557617188	629.8788452148439	179.8769836425782	-295.0971984863282	528.7678833007814	186.7876434326172	-345.7637634277344	530.2355957031251	173.2584228515625	-380.5812072753907	569.6448364257814	206.530746459961	-394.7765502929689	638.6422729492189	159.4269561767578	-343.6280212402344	526.8760375976564	148.5725860595703	-435.3101806640626	571.3778076171876	174.442367553711	-455.2012634277345	643.5049438476564	154.3867645263672	-425.4431152343751	555.6952514648439	168.4385375976563	-512.9131469726564	156.7727966308594	676.7949829101564	287.0815124511719	157.4817657470703	645.7185058593751	234.6619262695313	196.9077911376954	601.2246093750001	283.4806213378907	209.603744506836	577.7232666015626	227.6547241210938	440.3550415039064	395.2752990722657	582.6359252929689	451.242401123047	343.5960693359376	568.4163208007814	468.9224548339845	360.4499816894532	612.2602539062501	493.907684326172	311.5072631835938	589.3334960937501	585.6900634765626	370.4011840820313	721.6913452148439	574.9847412109376	351.2070312500001	764.2036743164064	628.2968139648439	364.5369567871094	742.6281738281251	664.9573974609376	162.9517211914063	658.4118652343751	580.1859130859376	160.7681579589844	727.3291015625001	
3	0.008333333333333333	260.4379882812501	1058.583618164063	238.1582489013672	161.8365631103516	1035.9921875	270.5839843750001	266.1662292480469	1024.178833007813	25.56460189819337	66.49077606201173	944.9375610351565	95.64725494384767	426.3933410644532	834.7171020507815	-68.48622131347658	395.9429016113282	851.510192871094	-118.2453994750977	427.2379760742189	781.4804687500002	-133.9505310058594	389.2503662109376	790.8283691406252	-177.6000213623047	551.3663940429689	395.9547119140626	-246.8069152832032	537.8603515625001	393.2270812988282	-306.6630249023438	563.2679443359376	346.7021179199219	-276.5315246582032	538.8536376953126	339.5101623535157	-330.8113403320313	582.5996093750001	182.8261260986328	-248.0767517089844	556.5136108398439	140.58935546875	-255.3151397705079	618.6499023437501	154.2890014648438	-264.6385803222657	526.7078247070314	157.6836853027344	-319.0585327148438	626.4636230468751	176.130599975586	-324.8357543945313	524.1860351562501	183.3259735107422	-373.0139160156251	524.7742919921876	170.4416809082032	-408.1893310546876	563.9984741210939	203.9859619140626	-422.3747863769532	634.0116577148439	156.3703918457032	-373.9114379882813	520.2326049804689	146.3524169921875	-462.8414306640626	564.2761840820314	172.85791015625	-483.5411071777345	636.9063110351564	152.5538482666016	-455.7029724121095	547.2993774414064	167.7994689941407	-540.9891357421876	152.9979095458985	674.4265136718751	265.0797119140626	151.9008331298828	644.3198242187501	212.4199218750001	192.2278747558594	598.4362182617189	260.2065124511719	202.8230743408204	575.3255004882814	204.2008514404297	433.841522216797	403.6604003906251	560.4497070312501	444.4779357910157	351.4243774414063	548.6395874023439	462.1275024414064	370.0374755859376	591.8832397460939	486.8489379882814	320.2422180175782	571.1727294921876	578.4893188476564	384.9371643066407	700.3026733398439	567.2908325195314	368.0686950683594	743.9211425781251	620.7556762695314	379.5647888183594	721.9631958007814	655.6420288085939	173.9520416259766	647.4255981445314	570.4392089843751	176.2852935791016	715.7130737304689	
4	0.0125	257.8278503417969	1058.623168945313	216.5667572021485	159.3088684082032	1036.82568359375	249.6894989013672	260.7079162597657	1023.195495605469	4.398572921752931	61.73279190063478	945.4166259765627	76.1145706176758	423.6724243164064	830.8902587890627	-88.04254150390626	392.196502685547	846.3171386718752	-137.9580078125	424.478485107422	776.2320556640627	-152.3375701904297	385.5989074707032	784.159851074219	-195.7630615234376	550.1121826171876	391.7757873535157	-271.7433471679688	533.3054199218751	388.8153686523439	-330.7654113769532	560.3352050781251	342.4425964355469	-301.7933044433594	533.8246459960939	335.1116943359376	-355.4154968261719	580.9259643554689	178.2632904052735	-274.7351379394532	554.8533935546876	136.07421875	-281.9141540527344	616.6995239257814	149.9110870361328	-292.1976928710938	523.8190307617189	153.8006439208985	-344.8527832031251	623.2972412109376	172.2693634033203	-352.3937072753907	519.9567871093751	179.4021606445313	-398.5894775390626	519.9373779296876	167.3768310546875	-433.917938232422	558.9721679687501	200.7069396972657	-448.341278076172	629.8211669921876	152.9611968994141	-401.7108459472657	514.3186035156251	143.6258239746094	-488.501434326172	557.9583740234376	170.297607421875	-509.8810119628907	631.1192016601564	149.7013092041016	-483.6213684082032	539.9340820312501	165.8448333740235	-567.0556640625001	148.5795440673828	672.1982421875001	242.9646911621094	146.1466369628907	642.3520507812501	190.1933288574219	186.5623016357422	595.6177368164064	236.9138336181641	195.6800079345704	572.9934692382814	180.3726043701172	427.0885009765626	411.8881835937501	537.1621704101564	437.2916870117189	359.1165771484376	527.8333129882814	457.0251770019532	377.7275085449219	570.7324829101564	479.3156738281251	328.9635314941407	552.0266113281251	570.4456787109376	399.3056945800782	678.1674804687501	558.7773437500001	384.4083557128907	722.2440185546876	612.5722045898439	394.6016845703126	700.4059448242189	646.2442016601564	185.3670501708985	635.2257080078126	560.7363281250001	191.5884246826172	702.8724975585939	
5	0.01666666666666667	255.2552490234376	1058.418701171875	194.8939208984376	156.7444152832032	1037.301879882813	228.9634094238282	255.3275146484376	1021.855590820313	-16.67534637451172	56.90069580078126	945.8421020507815	56.77727508544923	420.8568115234376	827.1184082031252	-107.5183181762696	388.1751708984376	841.0261840820315	-156.9332885742188	421.4627685546876	771.3025512695315	-170.7588348388672	381.9043884277344	777.9843750000002	-213.7719726562501	547.4620361328126	387.2686767578126	-294.7011108398438	529.0690917968751	384.3633117675782	-353.2796325683594	557.2368164062501	338.1191711425782	-325.2044677734376	529.4677124023439	330.7905883789063	-378.1307678222657	579.3126831054689	173.9688720703125	-299.4703369140626	553.0664062500001	131.7800750732422	-306.3302001953126	614.7648925781251	145.7527770996094	-317.6303405761719	521.1675415039064	149.4462890625	-368.8872375488282	620.4578247070314	168.3527221679688	-377.7942810058594	516.2745361328126	175.5964508056641	-422.2724609375001	515.6634521484376	163.5920715332032	-457.7500000000001	554.4791870117189	196.9639129638672	-472.4367980957032	626.0317993164064	149.0618286132813	-427.2570800781251	509.2792968750001	139.9232482910157	-512.2451171875001	552.5764770507814	166.6893768310547	-534.2075195312501	626.1076660156251	146.2484588623047	-509.2012023925782	533.6473388671876	162.6398010253907	-591.1690063476564	144.4397125244141	669.2052001953126	220.9219665527344	140.2544555664063	640.3604736328126	167.9677734375	181.0327301025391	592.5305786132814	213.5852050781251	188.4851226806641	570.3132934570314	156.913558959961	419.9091186523439	419.7627258300782	512.8573608398439	429.7160034179689	366.6048278808594	506.0459289550782	449.272186279297	386.9841308593751	548.2867431640626	471.4962463378907	337.4619140625001	531.7796630859376	561.8963623046876	413.2854919433595	654.6949462890626	549.8169555664064	400.3832092285157	699.3893432617189	603.7631225585939	409.3074035644532	677.4070434570314	636.9531860351564	197.384262084961	621.4676513671876	550.6196899414064	206.7216949462891	688.8372192382814	
